<svg xmlns="http://www.w3.org/2000/svg" version="1.2" viewBox="0 0 200 200" preserveAspectRatio="xMidYMid meet" baseProfile="tiny-ps" xml:space="preserve"><title>DVI icon</title>
<path d="M0 0 C66 0 132 0 200 0 C200 66 200 132 200 200 C134 200 68 200 0 200 C0 134 0 68 0 0 Z " fill="#020202" transform="translate(0,0)"/>
<path d="M0 0 C47.52 0 95.04 0 144 0 C144.12375 12.21 144.2475 24.42 144.375 37 C144.45693604 42.73310547 144.45693604 42.73310547 144.54052734 48.58203125 C144.56762695 53.33398438 144.56762695 53.33398438 144.57266235 55.57495117 C144.58173615 57.10435537 144.60253982 58.63372313 144.63345337 60.1628418 C144.86034276 72.00187252 142.87951007 81.19552698 138 92 C137.34 92 136.68 92 136 92 C135.814375 92.66 135.62875 93.32 135.4375 94 C130.37079182 104.57399968 120.37929584 110.97182348 109.6875 114.875 C102.32374089 117.36531943 96.06280946 118.14409506 88.34448242 118.11352539 C86.89498199 118.11374443 86.89498199 118.11374443 85.41619873 118.1139679 C82.22926573 118.11327248 79.04239152 118.1054974 75.85546875 118.09765625 C73.64301078 118.09579075 71.4305524 118.09436747 69.21809387 118.09336853 C63.40006364 118.08955372 57.58205844 118.07973225 51.76403809 118.06866455 C44.78060676 118.05662785 37.79716706 118.05204326 30.81372833 118.04621124 C20.20913482 118.03651997 9.60459622 118.01735613 -1 118 C-1 93.91 -1 69.82 -1 45 C7.91 45 16.82 45 26 45 C26 59.85 26 74.7 26 90 C37.28436584 89.90889121 37.28436584 89.90889121 48.56835938 89.79101562 C53.1785976 89.73693326 57.78872053 89.68581569 62.39916992 89.65356445 C66.12116613 89.62732856 69.84276943 89.58678778 73.56451988 89.53681374 C74.97604121 89.52028075 76.38763028 89.50868281 77.79923439 89.50238609 C88.17085867 89.4514939 98.16981151 88.98174059 107 83 C107.66 83 108.32 83 109 83 C109.28746094 82.41863281 109.57492188 81.83726563 109.87109375 81.23828125 C110.57137014 79.84984398 111.28953722 78.47009226 112.03515625 77.10546875 C112.37417969 76.47253906 112.71320313 75.83960937 113.0625 75.1875 C113.57490234 74.24970703 113.57490234 74.24970703 114.09765625 73.29296875 C118.86728472 61.17274403 116.8821378 31.3609013 117 27 C78.39 27 39.78 27 0 27 C0 18.09 0 9.18 0 0 Z " fill="#FCFCFC" transform="translate(28,40)"/>
</svg>